<svg width="186" height="186" viewBox="0 0 186 186" fill="none" xmlns="http://www.w3.org/2000/svg">
<path d="M102.365 185.239C143.728 179.926 175.272 151.411 183.881 111.462C185.966 101.643 185.966 84.023 183.881 74.2041C175.877 37.1475 147.293 9.03564 109.965 1.57053C101.087 -0.178057 83.3985 -0.0435506 74.3188 1.90679C37.2601 9.84268 9.14667 38.4926 1.68113 75.8181C0.0669572 83.9558 0.0669572 101.711 1.68113 109.848C9.07941 146.972 37.4619 175.958 73.9825 183.625C80.3719 184.97 96.9844 185.912 102.365 185.239ZM99.6747 92.9005V13.6761L104.921 14.4832C122.206 17.2405 136.464 24.5711 148.84 36.9457C159.601 47.7063 166.125 59.2066 170.026 74.3386C171.774 80.9966 171.976 82.8125 171.909 92.8332C171.909 102.585 171.707 104.804 170.16 111.059C166.394 125.922 159.601 137.96 148.84 148.721C136.397 161.163 121.062 168.964 103.777 171.452C101.692 171.789 99.9437 172.058 99.8092 172.125C99.742 172.125 99.6747 136.548 99.6747 92.9005Z" fill="black"/>
</svg>
