<svg width="128" height="62" viewBox="0 0 128 62" fill="none" xmlns="http://www.w3.org/2000/svg">
<path d="M6.66 33.54C4.452 33.54 2.784 33.156 1.656 32.388C0.552 31.62 0 30.684 0 29.58C0 28.764 0.24 28.116 0.72 27.636C1.224 27.132 1.884 26.88 2.7 26.88C2.892 26.88 3.084 26.904 3.276 26.952C3.468 26.976 3.6 26.988 3.672 26.988L4.14 27.06V32.46C4.308 32.556 4.476 32.616 4.644 32.64C5.052 32.76 5.484 32.82 5.94 32.82C8.82 32.82 10.26 30.48 10.26 25.8V8.88L8.1 8.34V7.8H18.36V8.34L16.2 8.88V25.8C16.2 28.296 15.42 30.216 13.86 31.56C12.3 32.88 9.9 33.54 6.66 33.54ZM24.833 12.3V31.38L27.713 32.46V33H20.873V32.46L23.753 31.38V8.88L21.593 8.34V7.8H26.093C27.341 7.8 28.325 8.064 29.045 8.592C29.789 9.096 30.425 9.852 30.953 10.86L38.801 25.872L44.813 10.86C45.221 9.804 45.773 9.036 46.469 8.556C47.165 8.052 48.233 7.8 49.673 7.8H53.453V8.34L51.293 8.88V31.92L53.453 32.46V33H43.193V32.46L45.353 31.92V12.3L36.893 33.36H35.813L24.833 12.3ZM56.7141 32.46L58.8741 31.92V8.88L56.7141 8.34V7.8H66.9741V8.34L64.8141 8.88V32.1H72.5541C72.5541 30.588 72.9381 29.184 73.7061 27.888C74.0421 27.336 74.4381 26.88 74.8941 26.52H75.9741V33H56.7141V32.46ZM87.5067 33.54C85.8027 33.54 84.2067 33.156 82.7187 32.388C82.0467 32.052 81.4827 31.656 81.0267 31.2C80.6907 31.752 80.2707 32.244 79.7667 32.676C79.3347 32.988 79.0947 33.156 79.0467 33.18H78.1467V26.34H79.5867C79.9467 27.516 80.4507 28.572 81.0987 29.508C82.5627 31.596 84.4587 32.64 86.7867 32.64C88.1547 32.64 89.2467 32.232 90.0627 31.416C90.8787 30.6 91.2867 29.508 91.2867 28.14C91.2867 27.348 91.0467 26.64 90.5667 26.016C90.1107 25.392 89.5347 24.84 88.8387 24.36C88.1427 23.88 87.1707 23.28 85.9227 22.56C84.3387 21.672 83.0547 20.868 82.0707 20.148C81.0867 19.428 80.2467 18.528 79.5507 17.448C78.8547 16.344 78.5067 15.048 78.5067 13.56C78.5067 12.384 78.8307 11.328 79.4787 10.392C80.1507 9.432 81.1467 8.676 82.4667 8.124C83.7867 7.548 85.4067 7.26 87.3267 7.26C88.7187 7.26 90.1107 7.656 91.5027 8.448C92.0307 8.736 92.5587 9.12 93.0867 9.6C93.4947 8.976 93.9147 8.484 94.3467 8.124C94.7787 7.812 95.0187 7.644 95.0667 7.62H95.9667V14.46H94.5267C94.2147 13.308 93.7467 12.264 93.1227 11.328C92.5467 10.416 91.8267 9.66 90.9627 9.06C90.1227 8.46 89.1507 8.16 88.0467 8.16C87.1107 8.16 86.3067 8.532 85.6347 9.276C84.9627 10.02 84.6267 10.968 84.6267 12.12C84.6267 13.008 84.8787 13.812 85.3827 14.532C85.9107 15.228 86.5467 15.84 87.2907 16.368C88.0587 16.896 89.0907 17.532 90.3867 18.276C91.8987 19.14 93.1227 19.908 94.0587 20.58C94.9947 21.252 95.7867 22.092 96.4347 23.1C97.0827 24.084 97.4067 25.224 97.4067 26.52C97.4067 27.816 97.0347 29.004 96.2907 30.084C95.5467 31.14 94.4307 31.98 92.9427 32.604C91.4547 33.228 89.6427 33.54 87.5067 33.54Z" fill="#0B1728"/>
<ellipse cx="107" cy="27.5" rx="5" ry="4.5" fill="#0B1728"/>
</svg>
