<svg width="300" height="300" viewBox="0 0 300 300" fill="none" xmlns="http://www.w3.org/2000/svg">
<path d="M145.46 1.61417L143.577 3.22825V20.8486V38.469L145.46 40.083C148.016 42.3024 151.917 42.3024 154.473 40.083L156.356 38.469V20.8486V3.22825L154.473 1.61417C153.195 0.538122 151.783 9.63286e-05 149.967 9.63286e-05C148.151 9.63286e-05 146.738 0.538122 145.46 1.61417Z" fill="#E1E1E1"/>
<path d="M45.1129 42.6386C41.9518 44.3872 40.8757 48.2879 42.6243 51.6506C43.1624 52.6594 48.543 58.3759 54.6634 64.3614C65.4918 75.122 65.7608 75.3237 68.6528 75.3237C72.8228 75.3237 75.3113 72.8354 75.3113 68.7329C75.3113 65.7738 75.1768 65.6393 64.4156 54.677C58.3625 48.5569 52.6457 43.1767 51.6368 42.6386C49.4173 41.4953 47.1978 41.4953 45.1129 42.6386Z" fill="#E1E1E1"/>
<path d="M247.825 42.9749C246.749 43.6474 241.032 49.0277 235.248 55.0132C224.957 65.4375 224.621 65.841 224.621 68.5984C224.621 72.5663 227.379 75.3237 231.347 75.3237C234.104 75.3237 234.508 75.0547 245.269 64.3614C256.232 53.6009 258.25 51.1126 258.25 48.4897C258.25 44.9253 254.954 41.6971 251.389 41.6971C250.515 41.6971 248.968 42.2351 247.825 42.9749Z" fill="#E1E1E1"/>
<path d="M140.55 57.5687C99.1869 62.8817 67.6433 91.3971 59.0344 131.346C56.9495 141.164 56.9495 158.785 59.0344 168.604C67.038 205.66 95.6223 233.772 132.95 241.237C141.828 242.986 159.517 242.851 168.596 240.901C205.655 232.965 233.768 204.315 241.234 166.99C242.848 158.852 242.848 141.097 241.234 132.96C233.836 95.8358 205.453 66.8496 168.933 59.1828C162.543 57.8377 145.931 56.8961 140.55 57.5687ZM143.24 149.907V229.132L137.994 228.325C120.709 225.567 106.451 218.237 94.0754 205.862C83.3142 195.102 76.7903 183.601 72.8894 168.469C71.1407 161.811 70.9389 159.995 71.0062 149.975C71.0062 140.223 71.208 138.004 72.7549 131.749C76.5213 116.886 83.3142 104.848 94.0754 94.0872C106.518 81.6453 121.853 73.844 139.138 71.3556C141.223 71.0193 142.971 70.7503 143.106 70.6831C143.173 70.6831 143.24 106.26 143.24 149.907Z" fill="#E1E1E1"/>
<path d="M3.6148 143.922C-0.151594 145.469 -1.22771 151.185 1.59709 154.481L3.21126 156.364H20.8326H38.454L40.0681 154.481C42.2876 151.925 42.2876 148.024 40.0681 145.469L38.454 143.586L21.707 143.451C12.56 143.384 4.35463 143.586 3.6148 143.922Z" fill="#E1E1E1"/>
<path d="M261.882 143.922C258.116 145.469 257.04 151.185 259.865 154.481L261.479 156.364H279.1H296.722L298.336 154.481C300.555 151.925 300.555 148.024 298.336 145.469L296.722 143.586L279.975 143.451C270.828 143.384 262.622 143.586 261.882 143.922Z" fill="#E1E1E1"/>
<path d="M54.0578 236.193C46.7268 243.524 42.2878 248.501 41.9515 249.644C40.7409 254.823 45.1126 259.194 50.2914 257.984C51.4348 257.647 56.4118 253.209 63.7428 245.878C75.1093 234.512 75.311 234.243 75.311 231.419C75.311 229.132 74.9075 228.123 73.3606 226.576C71.8137 225.029 70.8048 224.626 68.5181 224.626C65.6933 224.626 65.4242 224.828 54.0578 236.193Z" fill="#E1E1E1"/>
<path d="M226.572 226.576C224.353 228.796 224.016 231.62 225.563 234.579C227.178 237.606 247.624 257.446 249.709 257.916C254.82 259.194 259.192 254.823 257.914 249.644C257.443 247.627 237.602 227.182 234.576 225.567C231.617 224.021 228.792 224.357 226.572 226.576Z" fill="#E1E1E1"/>
<path d="M145.46 259.867L143.577 261.481V279.101V296.721L145.46 298.335C148.016 300.555 151.917 300.555 154.473 298.335L156.356 296.721V279.101V261.481L154.473 259.867C153.195 258.791 151.783 258.253 149.967 258.253C148.151 258.253 146.738 258.791 145.46 259.867Z" fill="#E1E1E1"/>
</svg>
