<svg width="23.78" height="21.33" viewBox="0 0 25 22" fill="none" xmlns="http://www.w3.org/2000/svg" className=" icon-logo">
  <path d="M24.0873 2.44463V20.2224C24.0873 21.2313 23.4446 22.0002 22.6012 22.0002H21.1151V5.86597L12.1985 13.5282L3.28179 5.86597L3.28179 22.0002H1.79568C0.952313 22.0002 0.30957 21.2313 0.30957 20.2224L0.30957 2.44463C0.30957 1.93974 0.468584 1.49529 0.735341 1.18063C0.874272 1.01434 1.03973 0.883168 1.22189 0.794906C1.40404 0.706644 1.59918 0.663095 1.79568 0.66685H2.2913L12.1985 9.25975L22.1056 0.66685H22.6012C23.0233 0.66685 23.3948 0.857072 23.6616 1.18063C23.9283 1.49529 24.0873 1.93974 24.0873 2.44463Z" fill="#C6C6C6"/>
</svg>
