<svg width="98" height="27" viewBox="0 0 98 27" fill="none" xmlns="http://www.w3.org/2000/svg">
<path d="M6.66 26.54C4.452 26.54 2.784 26.156 1.656 25.388C0.552 24.62 0 23.684 0 22.58C0 21.764 0.24 21.116 0.72 20.636C1.224 20.132 1.884 19.88 2.7 19.88C2.892 19.88 3.084 19.904 3.276 19.952C3.468 19.976 3.6 19.988 3.672 19.988L4.14 20.06V25.46C4.308 25.556 4.476 25.616 4.644 25.64C5.052 25.76 5.484 25.82 5.94 25.82C8.82 25.82 10.26 23.48 10.26 18.8V1.88001L8.1 1.34001V0.80001H18.36V1.34001L16.2 1.88001V18.8C16.2 21.296 15.42 23.216 13.86 24.56C12.3 25.88 9.9 26.54 6.66 26.54ZM24.833 5.30001V24.38L27.713 25.46V26H20.873V25.46L23.753 24.38V1.88001L21.593 1.34001V0.80001H26.093C27.341 0.80001 28.325 1.06401 29.045 1.59201C29.789 2.09601 30.425 2.85201 30.953 3.86001L38.801 18.872L44.813 3.86001C45.221 2.80401 45.773 2.03601 46.469 1.55601C47.165 1.05201 48.233 0.80001 49.673 0.80001H53.453V1.34001L51.293 1.88001V24.92L53.453 25.46V26H43.193V25.46L45.353 24.92V5.30001L36.893 26.36H35.813L24.833 5.30001ZM56.7141 25.46L58.8741 24.92V1.88001L56.7141 1.34001V0.80001H66.9741V1.34001L64.8141 1.88001V25.1H72.5541C72.5541 23.588 72.9381 22.184 73.7061 20.888C74.0421 20.336 74.4381 19.88 74.8941 19.52H75.9741V26H56.7141V25.46ZM87.5067 26.54C85.8027 26.54 84.2067 26.156 82.7187 25.388C82.0467 25.052 81.4827 24.656 81.0267 24.2C80.6907 24.752 80.2707 25.244 79.7667 25.676C79.3347 25.988 79.0947 26.156 79.0467 26.18H78.1467V19.34H79.5867C79.9467 20.516 80.4507 21.572 81.0987 22.508C82.5627 24.596 84.4587 25.64 86.7867 25.64C88.1547 25.64 89.2467 25.232 90.0627 24.416C90.8787 23.6 91.2867 22.508 91.2867 21.14C91.2867 20.348 91.0467 19.64 90.5667 19.016C90.1107 18.392 89.5347 17.84 88.8387 17.36C88.1427 16.88 87.1707 16.28 85.9227 15.56C84.3387 14.672 83.0547 13.868 82.0707 13.148C81.0867 12.428 80.2467 11.528 79.5507 10.448C78.8547 9.34401 78.5067 8.04801 78.5067 6.56001C78.5067 5.38401 78.8307 4.32801 79.4787 3.39201C80.1507 2.43201 81.1467 1.67601 82.4667 1.12401C83.7867 0.548009 85.4067 0.26001 87.3267 0.26001C88.7187 0.26001 90.1107 0.656009 91.5027 1.44801C92.0307 1.73601 92.5587 2.12001 93.0867 2.60001C93.4947 1.97601 93.9147 1.48401 94.3467 1.12401C94.7787 0.812009 95.0187 0.644009 95.0667 0.620009H95.9667V7.46001H94.5267C94.2147 6.30801 93.7467 5.26401 93.1227 4.32801C92.5467 3.41601 91.8267 2.66001 90.9627 2.06001C90.1227 1.46001 89.1507 1.16001 88.0467 1.16001C87.1107 1.16001 86.3067 1.53201 85.6347 2.27601C84.9627 3.02001 84.6267 3.96801 84.6267 5.12001C84.6267 6.00801 84.8787 6.81201 85.3827 7.53201C85.9107 8.22801 86.5467 8.84001 87.2907 9.36801C88.0587 9.89601 89.0907 10.532 90.3867 11.276C91.8987 12.14 93.1227 12.908 94.0587 13.58C94.9947 14.252 95.7867 15.092 96.4347 16.1C97.0827 17.084 97.4067 18.224 97.4067 19.52C97.4067 20.816 97.0347 22.004 96.2907 23.084C95.5467 24.14 94.4307 24.98 92.9427 25.604C91.4547 26.228 89.6427 26.54 87.5067 26.54Z" fill="#0B1728"/>
<path d="M5 9C7.76142 9 10 6.98528 10 4.5C10 2.01472 7.76142 0 5 0C2.23858 0 0 2.01472 0 4.5C0 6.98528 2.23858 9 5 9Z" fill="#0B1728"/>
</svg>
