<svg width="100" height="100" viewBox="0 0 100 100" fill="none" xmlns="http://www.w3.org/2000/svg">
<circle cx="50" cy="50" r="50" fill="#D9D9D9"/>
<circle cx="88.5" cy="55.5" r="3.5" fill="#030303"/>
<path d="M15.81 60.39C14.2153 60.39 13.0107 60.1127 12.196 59.558C11.3987 59.0033 11 58.3273 11 57.53C11 56.9407 11.1733 56.4727 11.52 56.126C11.884 55.762 12.3607 55.58 12.95 55.58C13.0887 55.58 13.2273 55.5973 13.366 55.632C13.5047 55.6493 13.6 55.658 13.652 55.658L13.99 55.71V59.61C14.1113 59.6793 14.2327 59.7227 14.354 59.74C14.6487 59.8267 14.9607 59.87 15.29 59.87C17.37 59.87 18.41 58.18 18.41 54.8V42.58L16.85 42.19V41.8H24.26V42.19L22.7 42.58V54.8C22.7 56.6027 22.1367 57.9893 21.01 58.96C19.8833 59.9133 18.15 60.39 15.81 60.39ZM28.9349 45.05V58.83L31.0149 59.61V60H26.0749V59.61L28.1549 58.83V42.58L26.5949 42.19V41.8H29.8449C30.7463 41.8 31.4569 41.9907 31.9769 42.372C32.5143 42.736 32.9736 43.282 33.3549 44.01L39.0229 54.852L43.3649 44.01C43.6596 43.2473 44.0583 42.6927 44.5609 42.346C45.0636 41.982 45.8349 41.8 46.8749 41.8H49.6049V42.19L48.0449 42.58V59.22L49.6049 59.61V60H42.1949V59.61L43.7549 59.22V45.05L37.6449 60.26H36.8649L28.9349 45.05ZM51.9602 59.61L53.5202 59.22V42.58L51.9602 42.19V41.8H59.3702V42.19L57.8102 42.58V59.35H63.4002C63.4002 58.258 63.6775 57.244 64.2322 56.308C64.4748 55.9093 64.7608 55.58 65.0902 55.32H65.8702V60H51.9602V59.61ZM74.1993 60.39C72.9686 60.39 71.816 60.1127 70.7413 59.558C70.256 59.3153 69.8486 59.0293 69.5193 58.7C69.2766 59.0987 68.9733 59.454 68.6093 59.766C68.2973 59.9913 68.124 60.1127 68.0893 60.13H67.4393V55.19H68.4793C68.7393 56.0393 69.1033 56.802 69.5713 57.478C70.6286 58.986 71.998 59.74 73.6793 59.74C74.6673 59.74 75.456 59.4453 76.0453 58.856C76.6346 58.2667 76.9293 57.478 76.9293 56.49C76.9293 55.918 76.756 55.4067 76.4093 54.956C76.08 54.5053 75.664 54.1067 75.1613 53.76C74.6586 53.4133 73.9566 52.98 73.0553 52.46C71.9113 51.8187 70.984 51.238 70.2733 50.718C69.5626 50.198 68.956 49.548 68.4533 48.768C67.9506 47.9707 67.6993 47.0347 67.6993 45.96C67.6993 45.1107 67.9333 44.348 68.4013 43.672C68.8866 42.9787 69.606 42.4327 70.5593 42.034C71.5126 41.618 72.6826 41.41 74.0693 41.41C75.0746 41.41 76.08 41.696 77.0853 42.268C77.4666 42.476 77.848 42.7533 78.2293 43.1C78.524 42.6493 78.8273 42.294 79.1393 42.034C79.4513 41.8087 79.6246 41.6873 79.6593 41.67H80.3093V46.61H79.2693C79.044 45.778 78.706 45.024 78.2553 44.348C77.8393 43.6893 77.3193 43.1433 76.6953 42.71C76.0886 42.2767 75.3866 42.06 74.5893 42.06C73.9133 42.06 73.3326 42.3287 72.8473 42.866C72.362 43.4033 72.1193 44.088 72.1193 44.92C72.1193 45.5613 72.3013 46.142 72.6653 46.662C73.0466 47.1647 73.506 47.6067 74.0433 47.988C74.598 48.3693 75.3433 48.8287 76.2793 49.366C77.3713 49.99 78.2553 50.5447 78.9313 51.03C79.6073 51.5153 80.1793 52.122 80.6473 52.85C81.1153 53.5607 81.3493 54.384 81.3493 55.32C81.3493 56.256 81.0806 57.114 80.5433 57.894C80.006 58.6567 79.2 59.2633 78.1253 59.714C77.0506 60.1647 75.742 60.39 74.1993 60.39Z" fill="#090C1B"/>
</svg>
